<mxfile host="app.diagrams.net" modified="2022-02-11T15:34:04.593Z" agent="5.0 (Macintosh; Intel Mac OS X 10_15_7) AppleWebKit/605.1.15 (KHTML, like Gecko) Version/15.1 Safari/605.1.15" etag="h76MYHp4rtH26tN23llg" version="16.5.3" type="github">
  <diagram id="m4-qdDm8ocn1MAiIzvWI" name="Page-1">
    <mxGraphModel dx="1051" dy="592" grid="1" gridSize="10" guides="1" tooltips="1" connect="1" arrows="1" fold="1" page="1" pageScale="1" pageWidth="850" pageHeight="1100" math="0" shadow="0">
      <root>
        <mxCell id="0" />
        <mxCell id="1" parent="0" />
        <mxCell id="iLjJzOgylloJrDsrUHjK-2" value="Start" style="rounded=1;whiteSpace=wrap;html=1;fillColor=#FFB570;" vertex="1" parent="1">
          <mxGeometry x="365" width="120" height="60" as="geometry" />
        </mxCell>
        <mxCell id="iLjJzOgylloJrDsrUHjK-3" value="" style="endArrow=classic;html=1;rounded=0;exitX=0.5;exitY=1;exitDx=0;exitDy=0;" edge="1" parent="1" source="iLjJzOgylloJrDsrUHjK-2">
          <mxGeometry width="50" height="50" relative="1" as="geometry">
            <mxPoint x="430" y="160" as="sourcePoint" />
            <mxPoint x="425" y="120" as="targetPoint" />
          </mxGeometry>
        </mxCell>
        <mxCell id="iLjJzOgylloJrDsrUHjK-4" value="Enter an array N of &lt;br&gt;words" style="shape=parallelogram;perimeter=parallelogramPerimeter;whiteSpace=wrap;html=1;fixedSize=1;fillColor=#7EA6E0;" vertex="1" parent="1">
          <mxGeometry x="358" y="120" width="135" height="60" as="geometry" />
        </mxCell>
        <mxCell id="iLjJzOgylloJrDsrUHjK-6" value="" style="endArrow=classic;html=1;rounded=0;exitX=0.5;exitY=1;exitDx=0;exitDy=0;" edge="1" parent="1">
          <mxGeometry width="50" height="50" relative="1" as="geometry">
            <mxPoint x="424" y="180.00000000000006" as="sourcePoint" />
            <mxPoint x="424" y="240.00000000000006" as="targetPoint" />
          </mxGeometry>
        </mxCell>
        <mxCell id="iLjJzOgylloJrDsrUHjK-15" value="i = 0&lt;br&gt;LONG = N[0]" style="shape=parallelogram;perimeter=parallelogramPerimeter;whiteSpace=wrap;html=1;fixedSize=1;fillColor=#7EA6E0;" vertex="1" parent="1">
          <mxGeometry x="358" y="240" width="135" height="60" as="geometry" />
        </mxCell>
        <mxCell id="iLjJzOgylloJrDsrUHjK-16" value="" style="endArrow=classic;html=1;rounded=0;entryX=0.5;entryY=0;entryDx=0;entryDy=0;" edge="1" parent="1" target="iLjJzOgylloJrDsrUHjK-17">
          <mxGeometry width="50" height="50" relative="1" as="geometry">
            <mxPoint x="423" y="300" as="sourcePoint" />
            <mxPoint x="424" y="360" as="targetPoint" />
          </mxGeometry>
        </mxCell>
        <mxCell id="iLjJzOgylloJrDsrUHjK-17" value="Is I greater than &lt;br&gt;length of N - 1?" style="rhombus;whiteSpace=wrap;html=1;fillColor=#B5739D;" vertex="1" parent="1">
          <mxGeometry x="360" y="360" width="125" height="100" as="geometry" />
        </mxCell>
        <mxCell id="iLjJzOgylloJrDsrUHjK-18" value="" style="endArrow=classic;html=1;rounded=0;exitX=0.5;exitY=1;exitDx=0;exitDy=0;entryX=0.5;entryY=0;entryDx=0;entryDy=0;" edge="1" parent="1" source="iLjJzOgylloJrDsrUHjK-17" target="iLjJzOgylloJrDsrUHjK-35">
          <mxGeometry width="50" height="50" relative="1" as="geometry">
            <mxPoint x="420" y="480" as="sourcePoint" />
            <mxPoint x="423" y="540" as="targetPoint" />
            <Array as="points">
              <mxPoint x="423" y="500" />
            </Array>
          </mxGeometry>
        </mxCell>
        <mxCell id="iLjJzOgylloJrDsrUHjK-33" value="NO" style="edgeLabel;html=1;align=center;verticalAlign=middle;resizable=0;points=[];" vertex="1" connectable="0" parent="iLjJzOgylloJrDsrUHjK-18">
          <mxGeometry x="-0.3762" y="-4" relative="1" as="geometry">
            <mxPoint as="offset" />
          </mxGeometry>
        </mxCell>
        <mxCell id="iLjJzOgylloJrDsrUHjK-28" value="" style="endArrow=classic;html=1;rounded=0;exitX=1;exitY=0.5;exitDx=0;exitDy=0;entryX=0.5;entryY=0;entryDx=0;entryDy=0;" edge="1" parent="1" source="iLjJzOgylloJrDsrUHjK-17" target="iLjJzOgylloJrDsrUHjK-32">
          <mxGeometry width="50" height="50" relative="1" as="geometry">
            <mxPoint x="560" y="520" as="sourcePoint" />
            <mxPoint x="620" y="560" as="targetPoint" />
            <Array as="points">
              <mxPoint x="708" y="410" />
              <mxPoint x="708" y="470" />
            </Array>
          </mxGeometry>
        </mxCell>
        <mxCell id="iLjJzOgylloJrDsrUHjK-30" value="YES" style="edgeLabel;html=1;align=center;verticalAlign=middle;resizable=0;points=[];" vertex="1" connectable="0" parent="iLjJzOgylloJrDsrUHjK-28">
          <mxGeometry x="-0.5814" y="-4" relative="1" as="geometry">
            <mxPoint as="offset" />
          </mxGeometry>
        </mxCell>
        <mxCell id="iLjJzOgylloJrDsrUHjK-32" value="Output LONG" style="shape=parallelogram;perimeter=parallelogramPerimeter;whiteSpace=wrap;html=1;fixedSize=1;fillColor=#7EA6E0;" vertex="1" parent="1">
          <mxGeometry x="640" y="560" width="135" height="60" as="geometry" />
        </mxCell>
        <mxCell id="iLjJzOgylloJrDsrUHjK-35" value="Is the length of&lt;br&gt;LONG greater &lt;br&gt;than length of &lt;br&gt;N[I]I?" style="rhombus;whiteSpace=wrap;html=1;fillColor=#B5739D;" vertex="1" parent="1">
          <mxGeometry x="360" y="540" width="125" height="130" as="geometry" />
        </mxCell>
        <mxCell id="iLjJzOgylloJrDsrUHjK-36" value="YES" style="endArrow=classic;html=1;rounded=0;exitX=0;exitY=0.5;exitDx=0;exitDy=0;" edge="1" parent="1" source="iLjJzOgylloJrDsrUHjK-35">
          <mxGeometry width="50" height="50" relative="1" as="geometry">
            <mxPoint x="80" y="730" as="sourcePoint" />
            <mxPoint x="250" y="605" as="targetPoint" />
            <Array as="points" />
          </mxGeometry>
        </mxCell>
        <mxCell id="iLjJzOgylloJrDsrUHjK-37" value="i = i + 1&lt;br&gt;LONG = &amp;nbsp;N[i]" style="rounded=0;whiteSpace=wrap;html=1;fillColor=#97D077;" vertex="1" parent="1">
          <mxGeometry x="130" y="575" width="120" height="60" as="geometry" />
        </mxCell>
        <mxCell id="iLjJzOgylloJrDsrUHjK-38" value="" style="endArrow=classic;html=1;rounded=0;exitX=0;exitY=0.5;exitDx=0;exitDy=0;entryX=0;entryY=0.5;entryDx=0;entryDy=0;" edge="1" parent="1" source="iLjJzOgylloJrDsrUHjK-37" target="iLjJzOgylloJrDsrUHjK-17">
          <mxGeometry width="50" height="50" relative="1" as="geometry">
            <mxPoint x="60" y="650" as="sourcePoint" />
            <mxPoint x="180" y="440" as="targetPoint" />
            <Array as="points">
              <mxPoint x="90" y="605" />
              <mxPoint x="90" y="410" />
            </Array>
          </mxGeometry>
        </mxCell>
        <mxCell id="iLjJzOgylloJrDsrUHjK-39" value="" style="endArrow=classic;html=1;rounded=0;exitX=0.5;exitY=1;exitDx=0;exitDy=0;entryX=0.5;entryY=0;entryDx=0;entryDy=0;" edge="1" parent="1">
          <mxGeometry width="50" height="50" relative="1" as="geometry">
            <mxPoint x="422.02" y="670" as="sourcePoint" />
            <mxPoint x="422.02" y="750" as="targetPoint" />
            <Array as="points">
              <mxPoint x="422.52" y="710" />
            </Array>
          </mxGeometry>
        </mxCell>
        <mxCell id="iLjJzOgylloJrDsrUHjK-40" value="NO" style="edgeLabel;html=1;align=center;verticalAlign=middle;resizable=0;points=[];" vertex="1" connectable="0" parent="iLjJzOgylloJrDsrUHjK-39">
          <mxGeometry x="-0.3762" y="-4" relative="1" as="geometry">
            <mxPoint as="offset" />
          </mxGeometry>
        </mxCell>
        <mxCell id="iLjJzOgylloJrDsrUHjK-41" value="i = i + 1" style="rounded=0;whiteSpace=wrap;html=1;fillColor=#97D077;" vertex="1" parent="1">
          <mxGeometry x="362.5" y="750" width="120" height="60" as="geometry" />
        </mxCell>
        <mxCell id="iLjJzOgylloJrDsrUHjK-42" value="" style="endArrow=classic;html=1;rounded=0;exitX=0;exitY=0.5;exitDx=0;exitDy=0;" edge="1" parent="1">
          <mxGeometry width="50" height="50" relative="1" as="geometry">
            <mxPoint x="360" y="785" as="sourcePoint" />
            <mxPoint x="360" y="410" as="targetPoint" />
            <Array as="points">
              <mxPoint x="90" y="785" />
              <mxPoint x="90" y="700" />
              <mxPoint x="90" y="580" />
              <mxPoint x="90" y="410" />
            </Array>
          </mxGeometry>
        </mxCell>
        <mxCell id="iLjJzOgylloJrDsrUHjK-43" value="End" style="rounded=1;whiteSpace=wrap;html=1;fillColor=#FFB570;" vertex="1" parent="1">
          <mxGeometry x="647.5" y="700" width="120" height="60" as="geometry" />
        </mxCell>
        <mxCell id="iLjJzOgylloJrDsrUHjK-44" value="" style="endArrow=classic;html=1;rounded=0;exitX=0.5;exitY=1;exitDx=0;exitDy=0;entryX=0.5;entryY=0;entryDx=0;entryDy=0;" edge="1" parent="1">
          <mxGeometry width="50" height="50" relative="1" as="geometry">
            <mxPoint x="707.02" y="620" as="sourcePoint" />
            <mxPoint x="707.02" y="700" as="targetPoint" />
            <Array as="points">
              <mxPoint x="707.52" y="660" />
            </Array>
          </mxGeometry>
        </mxCell>
      </root>
    </mxGraphModel>
  </diagram>
</mxfile>
